<svg width="348" height="122" viewBox="0 0 348 122" fill="none" xmlns="http://www.w3.org/2000/svg">
<path d="M42.7911 20H46.3771V13.51H51.4811V10.672H46.3771V6.712H53.5491V3.72H42.7911V20ZM59.1299 20.242C61.9679 20.242 65.1139 18.702 65.1139 14.148C65.1139 9.55 61.9679 8.032 59.1299 8.032C56.2699 8.032 53.1239 9.55 53.1239 14.148C53.1239 18.702 56.2919 20.242 59.1299 20.242ZM59.1299 17.756C57.3259 17.756 56.6659 16.128 56.6659 14.17C56.6659 12.058 57.4359 10.628 59.1299 10.628C60.8899 10.628 61.5719 12.212 61.5719 14.17C61.5719 16.304 60.8019 17.756 59.1299 17.756ZM72.5362 20.242C75.3742 20.242 78.5202 18.702 78.5202 14.148C78.5202 9.55 75.3742 8.032 72.5362 8.032C69.6762 8.032 66.5302 9.55 66.5302 14.148C66.5302 18.702 69.6982 20.242 72.5362 20.242ZM72.5362 17.756C70.7322 17.756 70.0722 16.128 70.0722 14.17C70.0722 12.058 70.8422 10.628 72.5362 10.628C74.2962 10.628 74.9782 12.212 74.9782 14.17C74.9782 16.304 74.2082 17.756 72.5362 17.756ZM84.4464 20.176C86.1844 20.176 87.2844 19.296 88.0544 18.24C88.0544 18.834 88.1644 19.714 88.3184 20H91.9484C91.6844 19.406 91.5964 18.548 91.5964 17.14V3.72H88.0544V9.748C87.2184 8.604 86.0744 8.032 84.4904 8.032C81.8064 8.032 79.9364 10.188 79.9364 14.236C79.9364 18.284 81.7844 20.176 84.4464 20.176ZM85.7664 17.514C84.1824 17.514 83.4784 16.172 83.4784 14.214C83.4784 12.08 84.2484 10.958 85.7224 10.958C86.6464 10.958 87.2844 11.31 88.0544 12.036V16.37C87.4824 16.964 86.6684 17.514 85.7664 17.514ZM100.541 20H103.841V9.528H103.885L110.991 20H114.291V3.72H110.991V14.104H110.947L104.127 3.72H100.541V20ZM117.423 6.668H120.987V3.83H117.423V6.668ZM117.445 20H120.965V8.274H117.445V20ZM123.802 20H127.344V12.124C128.136 11.442 128.95 10.958 129.896 10.958C130.886 10.958 131.282 11.508 131.282 12.564V20H134.802V11.442C134.802 9.022 133.372 8.032 131.392 8.032C129.346 8.032 128.048 9.198 127.344 10.122V8.274H123.802V20ZM137.489 6.668H141.053V3.83H137.489V6.668ZM137.225 24.466C140.591 24.466 141.031 22.75 141.031 21.122V8.274H137.511V20.44C137.511 21.584 137.049 22.046 136.081 22.046C135.751 22.046 135.267 21.98 135.069 21.914V24.312C135.267 24.356 136.543 24.466 137.225 24.466ZM146.42 20.176C148.158 20.176 149.434 19.494 150.512 18.284C150.512 18.944 150.622 19.516 150.776 20H154.296C154.054 19.406 153.966 18.548 153.966 17.14V12.63C153.966 9.616 152.646 8.032 149.434 8.032C146.508 8.032 144.748 9.066 143.582 10.122L145.078 12.146C146.156 11.31 147.432 10.694 148.928 10.694C150.072 10.694 150.512 11.244 150.512 12.102V12.388C145.364 12.806 143.076 14.302 143.076 17.008C143.076 19.01 144.616 20.176 146.42 20.176ZM147.828 17.514C147.058 17.514 146.53 17.14 146.53 16.392C146.53 15.314 147.718 14.61 150.512 14.324V16.502C149.918 17.096 149.06 17.514 147.828 17.514ZM162.561 6.668H166.125V3.83H162.561V6.668ZM162.583 20H166.103V8.274H162.583V20ZM173.538 20.242C176.244 20.242 178.708 19.12 178.708 16.282C178.708 13.62 176.266 13.092 173.956 12.696C172.504 12.432 171.866 12.146 171.866 11.442C171.866 10.804 172.438 10.408 173.45 10.408C174.55 10.408 175.716 10.87 176.904 11.684L178.29 9.682C176.992 8.648 175.54 8.032 173.142 8.032C170.524 8.032 168.588 9.396 168.588 11.75C168.588 14.5 170.964 15.028 173.186 15.424C174.792 15.71 175.408 16.018 175.408 16.832C175.408 17.602 174.638 17.976 173.538 17.976C172.108 17.976 170.524 17.382 169.468 16.458L168.06 18.438C169.248 19.45 170.964 20.242 173.538 20.242ZM189.366 20H192.468L195.218 8.67H195.262L197.836 20H200.894L205.14 3.72H201.84L200.19 11.244C199.882 12.564 199.684 13.224 199.464 14.698H199.42C199.2 13.246 198.958 12.498 198.65 11.2L196.89 3.72H193.59L191.94 11.156C191.654 12.322 191.39 13.356 191.192 14.698H191.148C190.928 13.312 190.664 12.322 190.356 11.134L188.64 3.72H185.032L189.366 20ZM206.946 20H210.488V12.124C211.28 11.442 212.094 10.958 213.062 10.958C214.03 10.958 214.426 11.508 214.426 12.564V20H217.968V11.442C217.968 9.022 216.538 8.032 214.536 8.032C212.49 8.032 211.192 9.198 210.488 10.122V3.72H206.946V20ZM225.891 20.242C227.937 20.242 229.631 19.648 230.995 18.482L229.631 16.37C228.839 17.096 227.541 17.778 226.155 17.778C224.681 17.778 223.603 17.03 223.427 15.094H231.193V14.566C231.193 9.242 228.223 8.032 225.803 8.032C223.383 8.032 219.907 9.594 219.907 14.148C219.907 18.68 222.833 20.242 225.891 20.242ZM223.471 13.004C223.735 11.288 224.681 10.562 225.781 10.562C227.101 10.562 227.849 11.354 228.025 13.004H223.471ZM233.242 20H236.784V12.718C237.444 11.86 238.5 11.112 239.908 11.112C240.128 11.112 240.7 11.156 240.832 11.178L240.876 8.032H240.766C238.566 8.032 237.444 9.242 236.806 10.232H236.784V8.274H233.242V20ZM247.397 20.242C249.443 20.242 251.137 19.648 252.501 18.482L251.137 16.37C250.345 17.096 249.047 17.778 247.661 17.778C246.187 17.778 245.109 17.03 244.933 15.094H252.699V14.566C252.699 9.242 249.729 8.032 247.309 8.032C244.889 8.032 241.413 9.594 241.413 14.148C241.413 18.68 244.339 20.242 247.397 20.242ZM244.977 13.004C245.241 11.288 246.187 10.562 247.287 10.562C248.607 10.562 249.355 11.354 249.531 13.004H244.977ZM264.242 20H267.806V13.092L273.438 3.72H269.786L266.046 10.056L262.328 3.72H258.632L264.242 13.092V20ZM277.282 20.242C280.12 20.242 283.266 18.702 283.266 14.148C283.266 9.55 280.12 8.032 277.282 8.032C274.422 8.032 271.276 9.55 271.276 14.148C271.276 18.702 274.444 20.242 277.282 20.242ZM277.282 17.756C275.478 17.756 274.818 16.128 274.818 14.17C274.818 12.058 275.588 10.628 277.282 10.628C279.042 10.628 279.724 12.212 279.724 14.17C279.724 16.304 278.954 17.756 277.282 17.756ZM288.643 20.242C290.689 20.242 291.987 19.076 292.691 18.174V20H296.233V8.274H292.691V16.238C291.899 16.92 291.085 17.426 290.139 17.426C289.149 17.426 288.753 16.854 288.753 15.798V8.274H285.211V16.832C285.211 19.252 286.641 20.242 288.643 20.242ZM298.92 20H302.462V12.718C303.122 11.86 304.178 11.112 305.586 11.112C305.806 11.112 306.378 11.156 306.51 11.178L306.554 8.032H306.444C304.244 8.032 303.122 9.242 302.484 10.232H302.462V8.274H298.92V20ZM77.8585 49.308C81.9505 49.308 83.8865 47.02 84.6785 43.742L81.3125 42.994C80.7405 45.216 79.7945 46.426 77.8805 46.426C75.4165 46.426 74.0525 44.27 74.0525 40.838C74.0525 37.472 75.3725 35.382 77.8365 35.382C79.7505 35.382 80.5425 36.658 81.0705 38.528L84.4585 37.538C83.7545 34.612 81.9725 32.412 77.8585 32.412C73.7445 32.412 70.4665 35.184 70.4665 40.838C70.4665 46.58 73.6125 49.308 77.8585 49.308ZM92.087 49.242C94.925 49.242 98.071 47.702 98.071 43.148C98.071 38.55 94.925 37.032 92.087 37.032C89.227 37.032 86.081 38.55 86.081 43.148C86.081 47.702 89.249 49.242 92.087 49.242ZM92.087 46.756C90.283 46.756 89.623 45.128 89.623 43.17C89.623 41.058 90.393 39.628 92.087 39.628C93.847 39.628 94.529 41.212 94.529 43.17C94.529 45.304 93.759 46.756 92.087 46.756ZM100.125 49H103.667V41.124C104.459 40.442 105.163 39.958 106.043 39.958C107.077 39.958 107.319 40.508 107.319 41.564V49H110.861V41.124C111.631 40.442 112.335 39.958 113.215 39.958C114.249 39.958 114.491 40.508 114.491 41.564V49H118.033V40.618C118.033 38.528 116.977 37.032 114.601 37.032C112.753 37.032 111.433 38.22 110.729 39.122C110.399 37.846 109.475 37.032 107.517 37.032C105.669 37.032 104.371 38.198 103.667 39.122V37.274H100.125V49ZM121.677 49H125.197V39.848H127.749V37.274H125.197V36.57C125.197 35.316 125.989 35.162 126.847 35.162C127.199 35.162 127.705 35.206 127.881 35.25V32.786C127.683 32.742 126.429 32.632 125.747 32.632C122.271 32.632 121.677 34.502 121.677 36.46V37.274H119.719V39.848H121.677V49ZM134.476 49.242C137.314 49.242 140.46 47.702 140.46 43.148C140.46 38.55 137.314 37.032 134.476 37.032C131.616 37.032 128.47 38.55 128.47 43.148C128.47 47.702 131.638 49.242 134.476 49.242ZM134.476 46.756C132.672 46.756 132.012 45.128 132.012 43.17C132.012 41.058 132.782 39.628 134.476 39.628C136.236 39.628 136.918 41.212 136.918 43.17C136.918 45.304 136.148 46.756 134.476 46.756ZM142.514 49H146.056V41.718C146.716 40.86 147.772 40.112 149.18 40.112C149.4 40.112 149.972 40.156 150.104 40.178L150.148 37.032H150.038C147.838 37.032 146.716 38.242 146.078 39.232H146.056V37.274H142.514V49ZM156.745 49.154C157.515 49.154 158.813 49.044 159.077 48.978V46.448C158.835 46.536 158.307 46.58 157.911 46.58C156.635 46.58 156.283 46.184 156.283 44.93V39.848H159.297V37.274H156.283V33.248H152.763V37.274H150.805V39.848H152.763V45.7C152.763 47.9 153.269 49.154 156.745 49.154ZM167.443 49H171.029V42.51H176.133V39.672H171.029V35.712H178.201V32.72H167.443V49ZM183.782 49.242C186.62 49.242 189.766 47.702 189.766 43.148C189.766 38.55 186.62 37.032 183.782 37.032C180.922 37.032 177.776 38.55 177.776 43.148C177.776 47.702 180.944 49.242 183.782 49.242ZM183.782 46.756C181.978 46.756 181.318 45.128 181.318 43.17C181.318 41.058 182.088 39.628 183.782 39.628C185.542 39.628 186.224 41.212 186.224 43.17C186.224 45.304 185.454 46.756 183.782 46.756ZM197.189 49.242C200.027 49.242 203.173 47.702 203.173 43.148C203.173 38.55 200.027 37.032 197.189 37.032C194.329 37.032 191.183 38.55 191.183 43.148C191.183 47.702 194.351 49.242 197.189 49.242ZM197.189 46.756C195.385 46.756 194.725 45.128 194.725 43.17C194.725 41.058 195.495 39.628 197.189 39.628C198.949 39.628 199.631 41.212 199.631 43.17C199.631 45.304 198.861 46.756 197.189 46.756ZM209.099 49.176C210.837 49.176 211.937 48.296 212.707 47.24C212.707 47.834 212.817 48.714 212.971 49H216.601C216.337 48.406 216.249 47.548 216.249 46.14V32.72H212.707V38.748C211.871 37.604 210.727 37.032 209.143 37.032C206.459 37.032 204.589 39.188 204.589 43.236C204.589 47.284 206.437 49.176 209.099 49.176ZM210.419 46.514C208.835 46.514 208.131 45.172 208.131 43.214C208.131 41.08 208.901 39.958 210.375 39.958C211.299 39.958 211.937 40.31 212.707 41.036V45.37C212.135 45.964 211.321 46.514 210.419 46.514ZM225.193 49H235.951V46.096H228.779V32.72H225.193V49ZM237.864 35.668H241.428V32.83H237.864V35.668ZM237.886 49H241.406V37.274H237.886V49ZM247.037 49.022H250.601L254.781 37.274H251.459L248.995 45.084H248.951L246.487 37.274H242.835L247.037 49.022ZM260.889 49.242C262.935 49.242 264.629 48.648 265.993 47.482L264.629 45.37C263.837 46.096 262.539 46.778 261.153 46.778C259.679 46.778 258.601 46.03 258.425 44.094H266.191V43.566C266.191 38.242 263.221 37.032 260.801 37.032C258.381 37.032 254.905 38.594 254.905 43.148C254.905 47.68 257.831 49.242 260.889 49.242ZM258.469 42.004C258.733 40.288 259.679 39.562 260.779 39.562C262.099 39.562 262.847 40.354 263.023 42.004H258.469ZM272.646 49.242C275.352 49.242 277.816 48.12 277.816 45.282C277.816 42.62 275.374 42.092 273.064 41.696C271.612 41.432 270.974 41.146 270.974 40.442C270.974 39.804 271.546 39.408 272.558 39.408C273.658 39.408 274.824 39.87 276.012 40.684L277.398 38.682C276.1 37.648 274.648 37.032 272.25 37.032C269.632 37.032 267.696 38.396 267.696 40.75C267.696 43.5 270.072 44.028 272.294 44.424C273.9 44.71 274.516 45.018 274.516 45.832C274.516 46.602 273.746 46.976 272.646 46.976C271.216 46.976 269.632 46.382 268.576 45.458L267.168 47.438C268.356 48.45 270.072 49.242 272.646 49.242Z" fill="white"/>
<path d="M67.4252 92H72.9812V91.22H68.2772V87.692H71.6012V86.924H68.2772V83.912H72.7292V83.12H67.4252V92ZM74.3702 92H75.1982V87.368C75.9062 86.684 76.5902 86.264 77.4062 86.264C78.2702 86.264 78.6662 86.696 78.6662 87.584V92H79.4942V87.428C79.4942 86.252 78.8582 85.556 77.6102 85.556C76.6142 85.556 75.8102 86.072 75.1982 86.672V85.676H74.3702V92ZM81.3908 84.212H82.2668V83.324H81.3908V84.212ZM80.9108 94.412C81.8828 94.412 82.2428 93.92 82.2428 93.056V85.676H81.4148V93.044C81.4148 93.536 81.1748 93.752 80.7908 93.752C80.6588 93.752 80.5148 93.728 80.4188 93.704V94.364C80.5028 94.388 80.7788 94.412 80.9108 94.412ZM86.7336 92.132C88.2816 92.132 89.5896 90.944 89.5896 88.844C89.5896 86.732 88.2816 85.556 86.7336 85.556C85.1736 85.556 83.8656 86.732 83.8656 88.844C83.8656 90.944 85.1856 92.132 86.7336 92.132ZM86.7336 91.424C85.3776 91.424 84.6936 90.236 84.6936 88.832C84.6936 87.344 85.4496 86.264 86.7336 86.264C88.0656 86.264 88.7616 87.452 88.7616 88.832C88.7616 90.356 88.0056 91.424 86.7336 91.424ZM91.0627 94.424C92.2747 94.424 92.7547 93.86 93.1747 92.732L95.8987 85.676H95.0347L93.0787 91.016H93.0547L91.0867 85.676H90.1987L92.6467 92.036L92.3827 92.732C92.1187 93.404 91.7707 93.704 91.0867 93.704C90.6667 93.704 90.3907 93.656 90.2107 93.608L90.0187 94.292C90.2707 94.364 90.5827 94.424 91.0627 94.424ZM101.286 92.108C102.234 92.108 103.05 91.76 103.782 91.1C103.782 91.46 103.842 91.736 103.926 92H104.778C104.646 91.676 104.598 91.208 104.598 90.44V87.572C104.598 86.312 103.986 85.556 102.57 85.556C101.322 85.556 100.446 86.036 99.6899 86.732L100.134 87.248C100.794 86.672 101.502 86.252 102.498 86.252C103.326 86.252 103.782 86.672 103.782 87.548V87.872C100.566 88.364 99.4979 89.276 99.4979 90.524C99.4979 91.508 100.158 92.108 101.286 92.108ZM101.466 91.424C100.758 91.424 100.314 91.076 100.314 90.416C100.314 89.588 101.07 88.916 103.782 88.46V90.428C103.134 91.052 102.354 91.424 101.466 91.424ZM109.619 92H110.447V86.384H111.839V85.676H110.447V84.716C110.447 84.032 110.879 83.804 111.491 83.804C111.623 83.804 111.815 83.816 111.911 83.828V83.132C111.803 83.12 111.587 83.108 111.431 83.108C110.231 83.108 109.619 83.66 109.619 84.728V85.676H108.515V86.384H109.619V92ZM114.282 92.108C115.23 92.108 116.046 91.76 116.778 91.1C116.778 91.46 116.838 91.736 116.922 92H117.774C117.642 91.676 117.594 91.208 117.594 90.44V87.572C117.594 86.312 116.982 85.556 115.566 85.556C114.318 85.556 113.442 86.036 112.686 86.732L113.13 87.248C113.79 86.672 114.498 86.252 115.494 86.252C116.322 86.252 116.778 86.672 116.778 87.548V87.872C113.562 88.364 112.494 89.276 112.494 90.524C112.494 91.508 113.154 92.108 114.282 92.108ZM114.462 91.424C113.754 91.424 113.31 91.076 113.31 90.416C113.31 89.588 114.066 88.916 116.778 88.46V90.428C116.13 91.052 115.35 91.424 114.462 91.424ZM121.48 92.12C122.908 92.12 123.94 91.46 123.94 90.308C123.94 89.072 123.124 88.688 121.54 88.304C120.436 88.04 120.004 87.788 120.004 87.176C120.004 86.696 120.388 86.24 121.372 86.24C122.14 86.24 122.74 86.54 123.22 87.02L123.688 86.468C123.124 85.916 122.428 85.556 121.348 85.556C119.98 85.556 119.2 86.312 119.2 87.212C119.2 88.316 119.944 88.7 121.396 89.06C122.632 89.348 123.136 89.624 123.136 90.32C123.136 91.028 122.572 91.424 121.492 91.424C120.616 91.424 120.004 91.064 119.524 90.512L118.996 90.992C119.476 91.64 120.352 92.12 121.48 92.12ZM127.494 92.084C127.782 92.084 128.118 92.048 128.31 92.012V91.304C128.13 91.364 127.89 91.388 127.65 91.388C126.87 91.388 126.654 91.028 126.654 90.356V86.384H128.298V85.676H126.654V83.408H125.826V85.676H124.722V86.384H125.826V90.524C125.826 91.616 126.282 92.084 127.494 92.084ZM133.887 92.108C134.835 92.108 135.651 91.76 136.383 91.1C136.383 91.46 136.443 91.736 136.527 92H137.379C137.247 91.676 137.199 91.208 137.199 90.44V87.572C137.199 86.312 136.587 85.556 135.171 85.556C133.923 85.556 133.047 86.036 132.291 86.732L132.735 87.248C133.395 86.672 134.103 86.252 135.099 86.252C135.927 86.252 136.383 86.672 136.383 87.548V87.872C133.167 88.364 132.099 89.276 132.099 90.524C132.099 91.508 132.759 92.108 133.887 92.108ZM134.067 91.424C133.359 91.424 132.915 91.076 132.915 90.416C132.915 89.588 133.671 88.916 136.383 88.46V90.428C135.735 91.052 134.955 91.424 134.067 91.424ZM139.046 92H139.874V87.368C140.582 86.684 141.266 86.264 142.082 86.264C142.946 86.264 143.342 86.696 143.342 87.584V92H144.17V87.428C144.17 86.252 143.534 85.556 142.286 85.556C141.29 85.556 140.486 86.072 139.874 86.672V85.676H139.046V92ZM148.275 92.108C149.223 92.108 149.871 91.628 150.387 91.076C150.387 91.412 150.459 91.784 150.531 92H151.407C151.263 91.676 151.215 91.208 151.215 90.44V83.12H150.387V86.54C149.895 85.988 149.163 85.556 148.347 85.556C146.835 85.556 145.671 86.636 145.671 88.844C145.671 91.052 146.823 92.108 148.275 92.108ZM148.419 91.4C147.363 91.4 146.499 90.596 146.499 88.856C146.499 87.068 147.303 86.252 148.419 86.252C149.151 86.252 149.763 86.624 150.387 87.296V90.368C149.787 91.004 149.199 91.4 148.419 91.4ZM157.879 92.12C159.307 92.12 160.339 91.46 160.339 90.308C160.339 89.072 159.523 88.688 157.939 88.304C156.835 88.04 156.403 87.788 156.403 87.176C156.403 86.696 156.787 86.24 157.771 86.24C158.539 86.24 159.139 86.54 159.619 87.02L160.087 86.468C159.523 85.916 158.827 85.556 157.747 85.556C156.379 85.556 155.599 86.312 155.599 87.212C155.599 88.316 156.343 88.7 157.795 89.06C159.031 89.348 159.535 89.624 159.535 90.32C159.535 91.028 158.971 91.424 157.891 91.424C157.015 91.424 156.403 91.064 155.923 90.512L155.395 90.992C155.875 91.64 156.751 92.12 157.879 92.12ZM161.909 92H162.737V87.368C163.445 86.684 164.093 86.264 164.849 86.264C165.749 86.264 166.049 86.696 166.049 87.584V92H166.877V87.368C167.585 86.684 168.221 86.264 168.989 86.264C169.877 86.264 170.177 86.696 170.177 87.584V92H171.005V87.428C171.005 86.288 170.477 85.556 169.181 85.556C168.245 85.556 167.453 86.072 166.793 86.696C166.601 86.024 166.121 85.556 165.053 85.556C164.105 85.556 163.373 86.048 162.737 86.672V85.676H161.909V92ZM175.374 92.132C176.922 92.132 178.23 90.944 178.23 88.844C178.23 86.732 176.922 85.556 175.374 85.556C173.814 85.556 172.506 86.732 172.506 88.844C172.506 90.944 173.826 92.132 175.374 92.132ZM175.374 91.424C174.018 91.424 173.334 90.236 173.334 88.832C173.334 87.344 174.09 86.264 175.374 86.264C176.706 86.264 177.402 87.452 177.402 88.832C177.402 90.356 176.646 91.424 175.374 91.424ZM182.3 92.132C183.848 92.132 185.156 90.944 185.156 88.844C185.156 86.732 183.848 85.556 182.3 85.556C180.74 85.556 179.432 86.732 179.432 88.844C179.432 90.944 180.752 92.132 182.3 92.132ZM182.3 91.424C180.944 91.424 180.26 90.236 180.26 88.832C180.26 87.344 181.016 86.264 182.3 86.264C183.632 86.264 184.328 87.452 184.328 88.832C184.328 90.356 183.572 91.424 182.3 91.424ZM188.818 92.084C189.106 92.084 189.442 92.048 189.634 92.012V91.304C189.454 91.364 189.214 91.388 188.974 91.388C188.194 91.388 187.978 91.028 187.978 90.356V86.384H189.622V85.676H187.978V83.408H187.15V85.676H186.046V86.384H187.15V90.524C187.15 91.616 187.606 92.084 188.818 92.084ZM191.101 92H191.929V87.368C192.637 86.684 193.321 86.264 194.137 86.264C195.001 86.264 195.397 86.696 195.397 87.584V92H196.225V87.428C196.225 86.252 195.589 85.556 194.341 85.556C193.345 85.556 192.541 86.072 191.929 86.672V83.12H191.101V92ZM201.248 92H202.076V86.384H203.468V85.676H202.076V84.716C202.076 84.032 202.508 83.804 203.12 83.804C203.252 83.804 203.444 83.816 203.54 83.828V83.132C203.432 83.12 203.216 83.108 203.06 83.108C201.86 83.108 201.248 83.66 201.248 84.728V85.676H200.144V86.384H201.248V92ZM207.015 92.132C208.563 92.132 209.871 90.944 209.871 88.844C209.871 86.732 208.563 85.556 207.015 85.556C205.455 85.556 204.147 86.732 204.147 88.844C204.147 90.944 205.467 92.132 207.015 92.132ZM207.015 91.424C205.659 91.424 204.975 90.236 204.975 88.832C204.975 87.344 205.731 86.264 207.015 86.264C208.347 86.264 209.043 87.452 209.043 88.832C209.043 90.356 208.287 91.424 207.015 91.424ZM213.941 92.132C215.489 92.132 216.797 90.944 216.797 88.844C216.797 86.732 215.489 85.556 213.941 85.556C212.381 85.556 211.073 86.732 211.073 88.844C211.073 90.944 212.393 92.132 213.941 92.132ZM213.941 91.424C212.585 91.424 211.901 90.236 211.901 88.832C211.901 87.344 212.657 86.264 213.941 86.264C215.273 86.264 215.969 87.452 215.969 88.832C215.969 90.356 215.213 91.424 213.941 91.424ZM220.614 92.108C221.562 92.108 222.21 91.628 222.726 91.076C222.726 91.412 222.798 91.784 222.87 92H223.746C223.602 91.676 223.554 91.208 223.554 90.44V83.12H222.726V86.54C222.234 85.988 221.502 85.556 220.686 85.556C219.174 85.556 218.01 86.636 218.01 88.844C218.01 91.052 219.162 92.108 220.614 92.108ZM220.758 91.4C219.702 91.4 218.838 90.596 218.838 88.856C218.838 87.068 219.642 86.252 220.758 86.252C221.49 86.252 222.102 86.624 222.726 87.296V90.368C222.126 91.004 221.538 91.4 220.758 91.4ZM230.435 92.108C231.383 92.108 232.031 91.628 232.547 91.076C232.547 91.412 232.619 91.784 232.691 92H233.567C233.423 91.676 233.375 91.208 233.375 90.44V83.12H232.547V86.54C232.055 85.988 231.323 85.556 230.507 85.556C228.995 85.556 227.831 86.636 227.831 88.844C227.831 91.052 228.983 92.108 230.435 92.108ZM230.579 91.4C229.523 91.4 228.659 90.596 228.659 88.856C228.659 87.068 229.463 86.252 230.579 86.252C231.311 86.252 231.923 86.624 232.547 87.296V90.368C231.947 91.004 231.359 91.4 230.579 91.4ZM237.704 92.132C238.904 92.132 239.684 91.58 240.236 90.692L239.72 90.284C239.24 91.028 238.7 91.436 237.752 91.436C236.66 91.436 235.772 90.56 235.76 89H240.284V88.844C240.284 86.684 239.18 85.556 237.704 85.556C236.372 85.556 234.932 86.588 234.932 88.832C234.932 90.992 236.228 92.132 237.704 92.132ZM235.772 88.34C235.928 86.912 236.78 86.252 237.692 86.252C238.82 86.252 239.396 87.14 239.48 88.34H235.772ZM241.915 92H242.743V83.12H241.915V92ZM244.774 84.212H245.65V83.324H244.774V84.212ZM244.798 92H245.626V85.676H244.798V92ZM249.288 92.024H250.116L252.444 85.676H251.604L249.744 91.016H249.72L247.848 85.676H246.96L249.288 92.024ZM255.821 92.132C257.021 92.132 257.801 91.58 258.353 90.692L257.837 90.284C257.357 91.028 256.817 91.436 255.869 91.436C254.777 91.436 253.889 90.56 253.877 89H258.401V88.844C258.401 86.684 257.297 85.556 255.821 85.556C254.489 85.556 253.049 86.588 253.049 88.832C253.049 90.992 254.345 92.132 255.821 92.132ZM253.889 88.34C254.045 86.912 254.897 86.252 255.809 86.252C256.937 86.252 257.513 87.14 257.597 88.34H253.889ZM259.96 92H260.788V87.884C261.28 86.888 262.096 86.312 263.128 86.312C263.152 86.312 263.38 86.324 263.38 86.324L263.464 85.556H263.32C262.072 85.556 261.304 86.144 260.812 86.924H260.788V85.676H259.96V92ZM264.91 94.424C266.122 94.424 266.602 93.86 267.022 92.732L269.746 85.676H268.882L266.926 91.016H266.902L264.934 85.676H264.046L266.494 92.036L266.23 92.732C265.966 93.404 265.618 93.704 264.934 93.704C264.514 93.704 264.238 93.656 264.058 93.608L263.866 94.292C264.118 94.364 264.43 94.424 264.91 94.424ZM275.134 92.108C276.082 92.108 276.898 91.76 277.63 91.1C277.63 91.46 277.69 91.736 277.774 92H278.626C278.494 91.676 278.446 91.208 278.446 90.44V87.572C278.446 86.312 277.834 85.556 276.418 85.556C275.17 85.556 274.294 86.036 273.538 86.732L273.982 87.248C274.642 86.672 275.35 86.252 276.346 86.252C277.174 86.252 277.63 86.672 277.63 87.548V87.872C274.414 88.364 273.346 89.276 273.346 90.524C273.346 91.508 274.006 92.108 275.134 92.108ZM275.314 91.424C274.606 91.424 274.162 91.076 274.162 90.416C274.162 89.588 274.918 88.916 277.63 88.46V90.428C276.982 91.052 276.202 91.424 275.314 91.424ZM282.392 92.084C282.68 92.084 283.016 92.048 283.208 92.012V91.304C283.028 91.364 282.788 91.388 282.548 91.388C281.768 91.388 281.552 91.028 281.552 90.356V86.384H283.196V85.676H281.552V83.408H280.724V85.676H279.62V86.384H280.724V90.524C280.724 91.616 281.18 92.084 282.392 92.084ZM137.809 116.424C139.021 116.424 139.501 115.86 139.921 114.732L142.645 107.676H141.781L139.825 113.016H139.801L137.833 107.676H136.945L139.393 114.036L139.129 114.732C138.865 115.404 138.517 115.704 137.833 115.704C137.413 115.704 137.137 115.656 136.957 115.608L136.765 116.292C137.017 116.364 137.329 116.424 137.809 116.424ZM146.077 114.132C147.625 114.132 148.933 112.944 148.933 110.844C148.933 108.732 147.625 107.556 146.077 107.556C144.517 107.556 143.209 108.732 143.209 110.844C143.209 112.944 144.529 114.132 146.077 114.132ZM146.077 113.424C144.721 113.424 144.037 112.236 144.037 110.832C144.037 109.344 144.793 108.264 146.077 108.264C147.409 108.264 148.105 109.452 148.105 110.832C148.105 112.356 147.349 113.424 146.077 113.424ZM152.319 114.132C153.303 114.132 154.107 113.604 154.719 113.004V114H155.559V107.676H154.719V112.32C154.011 112.992 153.327 113.424 152.523 113.424C151.647 113.424 151.263 112.992 151.263 112.104V107.676H150.435V112.248C150.435 113.424 151.059 114.132 152.319 114.132ZM157.468 114H158.296V109.884C158.788 108.888 159.604 108.312 160.636 108.312C160.66 108.312 160.888 108.324 160.888 108.324L160.972 107.556H160.828C159.58 107.556 158.812 108.144 158.32 108.924H158.296V107.676H157.468V114ZM167.165 114.108C168.113 114.108 168.761 113.628 169.277 113.076C169.277 113.412 169.349 113.784 169.421 114H170.297C170.153 113.676 170.105 113.208 170.105 112.44V105.12H169.277V108.54C168.785 107.988 168.053 107.556 167.237 107.556C165.725 107.556 164.561 108.636 164.561 110.844C164.561 113.052 165.713 114.108 167.165 114.108ZM167.309 113.4C166.253 113.4 165.389 112.596 165.389 110.856C165.389 109.068 166.193 108.252 167.309 108.252C168.041 108.252 168.653 108.624 169.277 109.296V112.368C168.677 113.004 168.089 113.4 167.309 113.4ZM174.531 114.132C176.079 114.132 177.387 112.944 177.387 110.844C177.387 108.732 176.079 107.556 174.531 107.556C172.971 107.556 171.663 108.732 171.663 110.844C171.663 112.944 172.983 114.132 174.531 114.132ZM174.531 113.424C173.175 113.424 172.491 112.236 172.491 110.832C172.491 109.344 173.247 108.264 174.531 108.264C175.863 108.264 176.559 109.452 176.559 110.832C176.559 112.356 175.803 113.424 174.531 113.424ZM181.456 114.132C183.004 114.132 184.312 112.944 184.312 110.844C184.312 108.732 183.004 107.556 181.456 107.556C179.896 107.556 178.588 108.732 178.588 110.844C178.588 112.944 179.908 114.132 181.456 114.132ZM181.456 113.424C180.1 113.424 179.416 112.236 179.416 110.832C179.416 109.344 180.172 108.264 181.456 108.264C182.788 108.264 183.484 109.452 183.484 110.832C183.484 112.356 182.728 113.424 181.456 113.424ZM185.874 114H186.702V109.884C187.194 108.888 188.01 108.312 189.042 108.312C189.066 108.312 189.294 108.324 189.294 108.324L189.378 107.556H189.234C187.986 107.556 187.218 108.144 186.726 108.924H186.702V107.676H185.874V114ZM192.473 114.12C193.901 114.12 194.933 113.46 194.933 112.308C194.933 111.072 194.117 110.688 192.533 110.304C191.429 110.04 190.997 109.788 190.997 109.176C190.997 108.696 191.381 108.24 192.365 108.24C193.133 108.24 193.733 108.54 194.213 109.02L194.681 108.468C194.117 107.916 193.421 107.556 192.341 107.556C190.973 107.556 190.193 108.312 190.193 109.212C190.193 110.316 190.937 110.7 192.389 111.06C193.625 111.348 194.129 111.624 194.129 112.32C194.129 113.028 193.565 113.424 192.485 113.424C191.609 113.424 190.997 113.064 190.517 112.512L189.989 112.992C190.469 113.64 191.345 114.12 192.473 114.12ZM198.486 114.084C198.774 114.084 199.11 114.048 199.302 114.012V113.304C199.122 113.364 198.882 113.388 198.642 113.388C197.862 113.388 197.646 113.028 197.646 112.356V108.384H199.29V107.676H197.646V105.408H196.818V107.676H195.714V108.384H196.818V112.524C196.818 113.616 197.274 114.084 198.486 114.084ZM203.075 114.132C204.275 114.132 205.055 113.58 205.607 112.692L205.091 112.284C204.611 113.028 204.071 113.436 203.123 113.436C202.031 113.436 201.143 112.56 201.131 111H205.655V110.844C205.655 108.684 204.551 107.556 203.075 107.556C201.743 107.556 200.303 108.588 200.303 110.832C200.303 112.992 201.599 114.132 203.075 114.132ZM201.143 110.34C201.299 108.912 202.151 108.252 203.063 108.252C204.191 108.252 204.767 109.14 204.851 110.34H201.143ZM207.214 116.4H208.042V113.136C208.606 113.712 209.266 114.108 210.082 114.108C211.594 114.108 212.758 113.04 212.758 110.832C212.758 108.624 211.606 107.556 210.154 107.556C209.206 107.556 208.546 108.036 208.042 108.576V107.676H207.214V116.4ZM210.01 113.412C209.278 113.412 208.666 113.04 208.042 112.38V109.308C208.642 108.672 209.23 108.264 210.01 108.264C211.066 108.264 211.93 109.092 211.93 110.844C211.93 112.632 211.126 113.412 210.01 113.412Z" fill="white"/>
</svg>
