<svg width="244" height="122" viewBox="0 0 244 122" fill="none" xmlns="http://www.w3.org/2000/svg">
<path d="M21.798 20H25.384V13.51H30.488V10.672H25.384V6.712H32.556V3.72H21.798V20ZM34.4686 6.668H38.0326V3.83H34.4686V6.668ZM34.4906 20H38.0106V8.274H34.4906V20ZM40.8474 20H44.3894V12.124C45.1814 11.442 45.9954 10.958 46.9414 10.958C47.9314 10.958 48.3274 11.508 48.3274 12.564V20H51.8474V11.442C51.8474 9.022 50.4174 8.032 48.4374 8.032C46.3914 8.032 45.0934 9.198 44.3894 10.122V8.274H40.8474V20ZM58.297 20.176C60.035 20.176 61.135 19.296 61.905 18.24C61.905 18.834 62.015 19.714 62.169 20H65.799C65.535 19.406 65.447 18.548 65.447 17.14V3.72H61.905V9.748C61.069 8.604 59.925 8.032 58.341 8.032C55.657 8.032 53.787 10.188 53.787 14.236C53.787 18.284 55.635 20.176 58.297 20.176ZM59.617 17.514C58.033 17.514 57.329 16.172 57.329 14.214C57.329 12.08 58.099 10.958 59.573 10.958C60.497 10.958 61.135 11.31 61.905 12.036V16.37C61.333 16.964 60.519 17.514 59.617 17.514ZM75.9097 24.488C78.2637 24.488 79.3417 23.256 80.1337 21.232L85.0617 8.274H81.6297L79.0337 15.886H78.9897L76.4157 8.274H72.7637L77.2517 20.066L77.0317 20.638C76.7457 21.364 76.3057 21.65 75.5357 21.65C74.4797 21.65 73.6437 21.43 73.3137 21.342L72.5657 24.07C73.1817 24.246 74.1717 24.488 75.9097 24.488ZM91.1602 20.242C93.9982 20.242 97.1442 18.702 97.1442 14.148C97.1442 9.55 93.9982 8.032 91.1602 8.032C88.3002 8.032 85.1542 9.55 85.1542 14.148C85.1542 18.702 88.3222 20.242 91.1602 20.242ZM91.1602 17.756C89.3562 17.756 88.6962 16.128 88.6962 14.17C88.6962 12.058 89.4662 10.628 91.1602 10.628C92.9202 10.628 93.6022 12.212 93.6022 14.17C93.6022 16.304 92.8322 17.756 91.1602 17.756ZM102.52 20.242C104.566 20.242 105.864 19.076 106.568 18.174V20H110.11V8.274H106.568V16.238C105.776 16.92 104.962 17.426 104.016 17.426C103.026 17.426 102.63 16.854 102.63 15.798V8.274H99.0884V16.832C99.0884 19.252 100.518 20.242 102.52 20.242ZM112.798 20H116.34V12.718C117 11.86 118.056 11.112 119.464 11.112C119.684 11.112 120.256 11.156 120.388 11.178L120.432 8.032H120.322C118.122 8.032 117 9.242 116.362 10.232H116.34V8.274H112.798V20ZM140.869 20.308C144.961 20.308 146.897 18.02 147.689 14.742L144.323 13.994C143.751 16.216 142.805 17.426 140.891 17.426C138.427 17.426 137.063 15.27 137.063 11.838C137.063 8.472 138.383 6.382 140.847 6.382C142.761 6.382 143.553 7.658 144.081 9.528L147.469 8.538C146.765 5.612 144.983 3.412 140.869 3.412C136.755 3.412 133.477 6.184 133.477 11.838C133.477 17.58 136.623 20.308 140.869 20.308ZM155.098 20.242C157.936 20.242 161.082 18.702 161.082 14.148C161.082 9.55 157.936 8.032 155.098 8.032C152.238 8.032 149.092 9.55 149.092 14.148C149.092 18.702 152.26 20.242 155.098 20.242ZM155.098 17.756C153.294 17.756 152.634 16.128 152.634 14.17C152.634 12.058 153.404 10.628 155.098 10.628C156.858 10.628 157.54 12.212 157.54 14.17C157.54 16.304 156.77 17.756 155.098 17.756ZM163.136 20H166.678V12.124C167.47 11.442 168.174 10.958 169.054 10.958C170.088 10.958 170.33 11.508 170.33 12.564V20H173.872V12.124C174.642 11.442 175.346 10.958 176.226 10.958C177.26 10.958 177.502 11.508 177.502 12.564V20H181.044V11.618C181.044 9.528 179.988 8.032 177.612 8.032C175.764 8.032 174.444 9.22 173.74 10.122C173.41 8.846 172.486 8.032 170.528 8.032C168.68 8.032 167.382 9.198 166.678 10.122V8.274H163.136V20ZM184.688 20H188.208V10.848H190.76V8.274H188.208V7.57C188.208 6.316 189 6.162 189.858 6.162C190.21 6.162 190.716 6.206 190.892 6.25V3.786C190.694 3.742 189.44 3.632 188.758 3.632C185.282 3.632 184.688 5.502 184.688 7.46V8.274H182.73V10.848H184.688V20ZM197.486 20.242C200.324 20.242 203.47 18.702 203.47 14.148C203.47 9.55 200.324 8.032 197.486 8.032C194.626 8.032 191.48 9.55 191.48 14.148C191.48 18.702 194.648 20.242 197.486 20.242ZM197.486 17.756C195.682 17.756 195.022 16.128 195.022 14.17C195.022 12.058 195.792 10.628 197.486 10.628C199.246 10.628 199.928 12.212 199.928 14.17C199.928 16.304 199.158 17.756 197.486 17.756ZM205.525 20H209.067V12.718C209.727 11.86 210.783 11.112 212.191 11.112C212.411 11.112 212.983 11.156 213.115 11.178L213.159 8.032H213.049C210.849 8.032 209.727 9.242 209.089 10.232H209.067V8.274H205.525V20ZM219.755 20.154C220.525 20.154 221.823 20.044 222.087 19.978V17.448C221.845 17.536 221.317 17.58 220.921 17.58C219.645 17.58 219.293 17.184 219.293 15.93V10.848H222.307V8.274H219.293V4.248H215.773V8.274H213.815V10.848H215.773V16.7C215.773 18.9 216.279 20.154 219.755 20.154ZM70.3956 49H73.9816V42.51H79.0856V39.672H73.9816V35.712H81.1536V32.72H70.3956V49ZM86.7344 49.242C89.5724 49.242 92.7184 47.702 92.7184 43.148C92.7184 38.55 89.5724 37.032 86.7344 37.032C83.8744 37.032 80.7284 38.55 80.7284 43.148C80.7284 47.702 83.8964 49.242 86.7344 49.242ZM86.7344 46.756C84.9304 46.756 84.2704 45.128 84.2704 43.17C84.2704 41.058 85.0404 39.628 86.7344 39.628C88.4944 39.628 89.1764 41.212 89.1764 43.17C89.1764 45.304 88.4064 46.756 86.7344 46.756ZM100.141 49.242C102.979 49.242 106.125 47.702 106.125 43.148C106.125 38.55 102.979 37.032 100.141 37.032C97.2807 37.032 94.1347 38.55 94.1347 43.148C94.1347 47.702 97.3027 49.242 100.141 49.242ZM100.141 46.756C98.3367 46.756 97.6767 45.128 97.6767 43.17C97.6767 41.058 98.4467 39.628 100.141 39.628C101.901 39.628 102.583 41.212 102.583 43.17C102.583 45.304 101.813 46.756 100.141 46.756ZM112.051 49.176C113.789 49.176 114.889 48.296 115.659 47.24C115.659 47.834 115.769 48.714 115.923 49H119.553C119.289 48.406 119.201 47.548 119.201 46.14V32.72H115.659V38.748C114.823 37.604 113.679 37.032 112.095 37.032C109.411 37.032 107.541 39.188 107.541 43.236C107.541 47.284 109.389 49.176 112.051 49.176ZM113.371 46.514C111.787 46.514 111.083 45.172 111.083 43.214C111.083 41.08 111.853 39.958 113.327 39.958C114.251 39.958 114.889 40.31 115.659 41.036V45.37C115.087 45.964 114.273 46.514 113.371 46.514ZM127.816 49H131.358V41.124C132.15 40.442 132.964 39.958 133.932 39.958C134.9 39.958 135.296 40.508 135.296 41.564V49H138.838V40.442C138.838 38.022 137.408 37.032 135.406 37.032C133.36 37.032 132.062 38.198 131.358 39.122V32.72H127.816V49ZM146.761 49.242C148.807 49.242 150.501 48.648 151.865 47.482L150.501 45.37C149.709 46.096 148.411 46.778 147.025 46.778C145.551 46.778 144.473 46.03 144.297 44.094H152.063V43.566C152.063 38.242 149.093 37.032 146.673 37.032C144.253 37.032 140.777 38.594 140.777 43.148C140.777 47.68 143.703 49.242 146.761 49.242ZM144.341 42.004C144.605 40.288 145.551 39.562 146.651 39.562C147.971 39.562 148.719 40.354 148.895 42.004H144.341ZM154.113 49H157.655V41.718C158.315 40.86 159.371 40.112 160.779 40.112C160.999 40.112 161.571 40.156 161.703 40.178L161.747 37.032H161.637C159.437 37.032 158.315 38.242 157.677 39.232H157.655V37.274H154.113V49ZM168.267 49.242C170.313 49.242 172.007 48.648 173.371 47.482L172.007 45.37C171.215 46.096 169.917 46.778 168.531 46.778C167.057 46.778 165.979 46.03 165.803 44.094H173.569V43.566C173.569 38.242 170.599 37.032 168.179 37.032C165.759 37.032 162.283 38.594 162.283 43.148C162.283 47.68 165.209 49.242 168.267 49.242ZM165.847 42.004C166.111 40.288 167.057 39.562 168.157 39.562C169.477 39.562 170.225 40.354 170.401 42.004H165.847Z" fill="white"/>
<path d="M11.724 92H12.576V87.704H17.388V92H18.24V83.12H17.388V86.924H12.576V83.12H11.724V92ZM22.745 92.132C23.945 92.132 24.725 91.58 25.277 90.692L24.761 90.284C24.281 91.028 23.741 91.436 22.793 91.436C21.701 91.436 20.813 90.56 20.801 89H25.325V88.844C25.325 86.684 24.221 85.556 22.745 85.556C21.413 85.556 19.973 86.588 19.973 88.832C19.973 90.992 21.269 92.132 22.745 92.132ZM20.813 88.34C20.969 86.912 21.821 86.252 22.733 86.252C23.861 86.252 24.437 87.14 24.521 88.34H20.813ZM26.8838 92H27.7118V87.884C28.2038 86.888 29.0198 86.312 30.0518 86.312C30.0758 86.312 30.3038 86.324 30.3038 86.324L30.3878 85.556H30.2438C28.9958 85.556 28.2278 86.144 27.7358 86.924H27.7118V85.676H26.8838V92ZM33.6786 92.132C34.8786 92.132 35.6586 91.58 36.2106 90.692L35.6946 90.284C35.2146 91.028 34.6746 91.436 33.7266 91.436C32.6346 91.436 31.7466 90.56 31.7346 89H36.2586V88.844C36.2586 86.684 35.1546 85.556 33.6786 85.556C32.3466 85.556 30.9066 86.588 30.9066 88.832C30.9066 90.992 32.2026 92.132 33.6786 92.132ZM31.7466 88.34C31.9026 86.912 32.7546 86.252 33.6666 86.252C34.7946 86.252 35.3706 87.14 35.4546 88.34H31.7466ZM42.36 92H43.212V88.088L46.2 83.12H45.288L42.804 87.356L40.308 83.12H39.384L42.36 88.088V92ZM48.2942 92.132C49.8422 92.132 51.1502 90.944 51.1502 88.844C51.1502 86.732 49.8422 85.556 48.2942 85.556C46.7342 85.556 45.4262 86.732 45.4262 88.844C45.4262 90.944 46.7462 92.132 48.2942 92.132ZM48.2942 91.424C46.9382 91.424 46.2542 90.236 46.2542 88.832C46.2542 87.344 47.0102 86.264 48.2942 86.264C49.6262 86.264 50.3222 87.452 50.3222 88.832C50.3222 90.356 49.5662 91.424 48.2942 91.424ZM54.536 92.132C55.52 92.132 56.324 91.604 56.936 91.004V92H57.776V85.676H56.936V90.32C56.228 90.992 55.544 91.424 54.74 91.424C53.864 91.424 53.48 90.992 53.48 90.104V85.676H52.652V90.248C52.652 91.424 53.276 92.132 54.536 92.132ZM65.8356 92.168C67.6116 92.168 68.7636 91.076 69.1956 89.324L68.3796 89.144C67.9956 90.632 67.1676 91.4 65.8476 91.4C64.1196 91.4 62.9916 89.96 62.9916 87.5C62.9916 85.22 64.1076 83.732 65.8236 83.732C67.1796 83.732 67.8396 84.464 68.2356 85.868L69.0516 85.664C68.6316 84.02 67.6356 82.952 65.8356 82.952C63.6156 82.952 62.1396 84.836 62.1396 87.524C62.1396 90.356 63.5916 92.168 65.8356 92.168ZM72.1863 92.108C73.1343 92.108 73.9503 91.76 74.6823 91.1C74.6823 91.46 74.7423 91.736 74.8263 92H75.6783C75.5463 91.676 75.4983 91.208 75.4983 90.44V87.572C75.4983 86.312 74.8863 85.556 73.4703 85.556C72.2223 85.556 71.3463 86.036 70.5903 86.732L71.0343 87.248C71.6943 86.672 72.4023 86.252 73.3983 86.252C74.2263 86.252 74.6823 86.672 74.6823 87.548V87.872C71.4663 88.364 70.3983 89.276 70.3983 90.524C70.3983 91.508 71.0583 92.108 72.1863 92.108ZM72.3663 91.424C71.6583 91.424 71.2143 91.076 71.2143 90.416C71.2143 89.588 71.9703 88.916 74.6823 88.46V90.428C74.0343 91.052 73.2543 91.424 72.3663 91.424ZM77.3448 92H78.1728V87.368C78.8808 86.684 79.5648 86.264 80.3808 86.264C81.2448 86.264 81.6408 86.696 81.6408 87.584V92H82.4688V87.428C82.4688 86.252 81.8328 85.556 80.5848 85.556C79.5888 85.556 78.7848 86.072 78.1728 86.672V85.676H77.3448V92ZM90.9845 84.224H91.8605V83.324H90.9845V84.224ZM87.4925 92H88.3205V86.384H89.6645V85.676H88.3205V84.716C88.3205 84.08 88.7165 83.804 89.3165 83.804C89.4485 83.804 89.6285 83.816 89.7245 83.828V83.132C89.6285 83.12 89.4125 83.108 89.2685 83.108C88.1165 83.108 87.4925 83.66 87.4925 84.728V85.676H86.3885V86.384H87.4925V92ZM91.0085 92H91.8365V85.676H91.0085V92ZM93.9151 92H94.7431V87.368C95.4511 86.684 96.1351 86.264 96.9511 86.264C97.8151 86.264 98.2111 86.696 98.2111 87.584V92H99.0391V87.428C99.0391 86.252 98.4031 85.556 97.1551 85.556C96.1591 85.556 95.3551 86.072 94.7431 86.672V85.676H93.9151V92ZM103.144 92.108C104.092 92.108 104.74 91.628 105.256 91.076C105.256 91.412 105.328 91.784 105.4 92H106.276C106.132 91.676 106.084 91.208 106.084 90.44V83.12H105.256V86.54C104.764 85.988 104.032 85.556 103.216 85.556C101.704 85.556 100.54 86.636 100.54 88.844C100.54 91.052 101.692 92.108 103.144 92.108ZM103.288 91.4C102.232 91.4 101.368 90.596 101.368 88.856C101.368 87.068 102.172 86.252 103.288 86.252C104.02 86.252 104.632 86.624 105.256 87.296V90.368C104.656 91.004 104.068 91.4 103.288 91.4ZM112.112 92.108C113.06 92.108 113.876 91.76 114.608 91.1C114.608 91.46 114.668 91.736 114.752 92H115.604C115.472 91.676 115.424 91.208 115.424 90.44V87.572C115.424 86.312 114.812 85.556 113.396 85.556C112.148 85.556 111.272 86.036 110.516 86.732L110.96 87.248C111.62 86.672 112.328 86.252 113.324 86.252C114.152 86.252 114.608 86.672 114.608 87.548V87.872C111.392 88.364 110.324 89.276 110.324 90.524C110.324 91.508 110.984 92.108 112.112 92.108ZM112.292 91.424C111.584 91.424 111.14 91.076 111.14 90.416C111.14 89.588 111.896 88.916 114.608 88.46V90.428C113.96 91.052 113.18 91.424 112.292 91.424ZM122.354 92.132C123.638 92.132 124.37 91.436 124.874 90.368L124.202 90.08C123.758 91.016 123.266 91.424 122.39 91.424C121.286 91.424 120.446 90.488 120.446 88.832C120.446 86.936 121.478 86.264 122.414 86.264C123.302 86.264 123.806 86.744 124.154 87.596L124.862 87.284C124.466 86.36 123.794 85.556 122.438 85.556C121.022 85.556 119.618 86.576 119.618 88.844C119.618 90.944 120.902 92.132 122.354 92.132ZM126.353 92H127.181V87.368C127.889 86.684 128.573 86.264 129.389 86.264C130.253 86.264 130.649 86.696 130.649 87.584V92H131.477V87.428C131.477 86.252 130.841 85.556 129.593 85.556C128.597 85.556 127.793 86.072 127.181 86.672V83.12H126.353V92ZM135.737 92.132C136.937 92.132 137.717 91.58 138.269 90.692L137.753 90.284C137.273 91.028 136.733 91.436 135.785 91.436C134.693 91.436 133.805 90.56 133.793 89H138.317V88.844C138.317 86.684 137.213 85.556 135.737 85.556C134.405 85.556 132.965 86.588 132.965 88.832C132.965 90.992 134.261 92.132 135.737 92.132ZM133.805 88.34C133.961 86.912 134.813 86.252 135.725 86.252C136.853 86.252 137.429 87.14 137.513 88.34H133.805ZM140.227 92H141.055V86.384H142.447V85.676H141.055V84.716C141.055 84.032 141.487 83.804 142.099 83.804C142.231 83.804 142.423 83.816 142.519 83.828V83.132C142.411 83.12 142.195 83.108 142.039 83.108C140.839 83.108 140.227 83.66 140.227 84.728V85.676H139.123V86.384H140.227V92ZM148.935 92.132C150.483 92.132 151.791 90.944 151.791 88.844C151.791 86.732 150.483 85.556 148.935 85.556C147.375 85.556 146.067 86.732 146.067 88.844C146.067 90.944 147.387 92.132 148.935 92.132ZM148.935 91.424C147.579 91.424 146.895 90.236 146.895 88.832C146.895 87.344 147.651 86.264 148.935 86.264C150.267 86.264 150.963 87.452 150.963 88.832C150.963 90.356 150.207 91.424 148.935 91.424ZM153.353 92H154.181V87.884C154.673 86.888 155.489 86.312 156.521 86.312C156.545 86.312 156.773 86.324 156.773 86.324L156.857 85.556H156.713C155.465 85.556 154.697 86.144 154.205 86.924H154.181V85.676H153.353V92ZM163.05 92.108C163.998 92.108 164.646 91.628 165.162 91.076C165.162 91.412 165.234 91.784 165.306 92H166.182C166.038 91.676 165.99 91.208 165.99 90.44V83.12H165.162V86.54C164.67 85.988 163.938 85.556 163.122 85.556C161.61 85.556 160.446 86.636 160.446 88.844C160.446 91.052 161.598 92.108 163.05 92.108ZM163.194 91.4C162.138 91.4 161.274 90.596 161.274 88.856C161.274 87.068 162.078 86.252 163.194 86.252C163.926 86.252 164.538 86.624 165.162 87.296V90.368C164.562 91.004 163.974 91.4 163.194 91.4ZM167.955 84.212H168.831V83.324H167.955V84.212ZM167.979 92H168.807V85.676H167.979V92ZM172.83 92.12C174.258 92.12 175.29 91.46 175.29 90.308C175.29 89.072 174.474 88.688 172.89 88.304C171.786 88.04 171.354 87.788 171.354 87.176C171.354 86.696 171.738 86.24 172.722 86.24C173.49 86.24 174.09 86.54 174.57 87.02L175.038 86.468C174.474 85.916 173.778 85.556 172.698 85.556C171.33 85.556 170.55 86.312 170.55 87.212C170.55 88.316 171.294 88.7 172.746 89.06C173.982 89.348 174.486 89.624 174.486 90.32C174.486 91.028 173.922 91.424 172.842 91.424C171.966 91.424 171.354 91.064 170.874 90.512L170.346 90.992C170.826 91.64 171.702 92.12 172.83 92.12ZM176.86 92H177.688V87.368C178.396 86.684 179.08 86.264 179.896 86.264C180.76 86.264 181.156 86.696 181.156 87.584V92H181.984V87.428C181.984 86.252 181.348 85.556 180.1 85.556C179.104 85.556 178.3 86.072 177.688 86.672V83.12H176.86V92ZM187.008 92H187.836V86.384H189.228V85.676H187.836V84.716C187.836 84.032 188.268 83.804 188.88 83.804C189.012 83.804 189.204 83.816 189.3 83.828V83.132C189.192 83.12 188.976 83.108 188.82 83.108C187.62 83.108 187.008 83.66 187.008 84.728V85.676H185.904V86.384H187.008V92ZM192.775 92.132C194.323 92.132 195.631 90.944 195.631 88.844C195.631 86.732 194.323 85.556 192.775 85.556C191.215 85.556 189.907 86.732 189.907 88.844C189.907 90.944 191.227 92.132 192.775 92.132ZM192.775 91.424C191.419 91.424 190.735 90.236 190.735 88.832C190.735 87.344 191.491 86.264 192.775 86.264C194.107 86.264 194.803 87.452 194.803 88.832C194.803 90.356 194.047 91.424 192.775 91.424ZM197.192 92H198.02V87.884C198.512 86.888 199.328 86.312 200.36 86.312C200.384 86.312 200.612 86.324 200.612 86.324L200.696 85.556H200.552C199.304 85.556 198.536 86.144 198.044 86.924H198.02V85.676H197.192V92ZM207.046 92.132C208.246 92.132 209.026 91.58 209.578 90.692L209.062 90.284C208.582 91.028 208.042 91.436 207.094 91.436C206.002 91.436 205.114 90.56 205.102 89H209.626V88.844C209.626 86.684 208.522 85.556 207.046 85.556C205.714 85.556 204.274 86.588 204.274 88.832C204.274 90.992 205.57 92.132 207.046 92.132ZM205.114 88.34C205.27 86.912 206.122 86.252 207.034 86.252C208.162 86.252 208.738 87.14 208.822 88.34H205.114ZM212.642 92.024H213.47L215.798 85.676H214.958L213.098 91.016H213.074L211.202 85.676H210.314L212.642 92.024ZM219.175 92.132C220.375 92.132 221.155 91.58 221.707 90.692L221.191 90.284C220.711 91.028 220.171 91.436 219.223 91.436C218.131 91.436 217.243 90.56 217.231 89H221.755V88.844C221.755 86.684 220.651 85.556 219.175 85.556C217.843 85.556 216.403 86.588 216.403 88.832C216.403 90.992 217.699 92.132 219.175 92.132ZM217.243 88.34C217.399 86.912 218.251 86.252 219.163 86.252C220.291 86.252 220.867 87.14 220.951 88.34H217.243ZM223.314 92H224.142V87.884C224.634 86.888 225.45 86.312 226.482 86.312C226.506 86.312 226.734 86.324 226.734 86.324L226.818 85.556H226.674C225.426 85.556 224.658 86.144 224.166 86.924H224.142V85.676H223.314V92ZM228.264 94.424C229.476 94.424 229.956 93.86 230.376 92.732L233.1 85.676H232.236L230.28 91.016H230.256L228.288 85.676H227.4L229.848 92.036L229.584 92.732C229.32 93.404 228.972 93.704 228.288 93.704C227.868 93.704 227.592 93.656 227.412 93.608L227.22 94.292C227.472 94.364 227.784 94.424 228.264 94.424ZM65.1538 114.084C65.4418 114.084 65.7778 114.048 65.9698 114.012V113.304C65.7898 113.364 65.5498 113.388 65.3098 113.388C64.5298 113.388 64.3138 113.028 64.3138 112.356V108.384H65.9578V107.676H64.3138V105.408H63.4858V107.676H62.3818V108.384H63.4858V112.524C63.4858 113.616 63.9418 114.084 65.1538 114.084ZM68.8406 114.108C69.7886 114.108 70.6046 113.76 71.3366 113.1C71.3366 113.46 71.3966 113.736 71.4806 114H72.3326C72.2006 113.676 72.1526 113.208 72.1526 112.44V109.572C72.1526 108.312 71.5406 107.556 70.1246 107.556C68.8766 107.556 68.0006 108.036 67.2446 108.732L67.6886 109.248C68.3486 108.672 69.0566 108.252 70.0526 108.252C70.8806 108.252 71.3366 108.672 71.3366 109.548V109.872C68.1206 110.364 67.0526 111.276 67.0526 112.524C67.0526 113.508 67.7126 114.108 68.8406 114.108ZM69.0206 113.424C68.3126 113.424 67.8686 113.076 67.8686 112.416C67.8686 111.588 68.6246 110.916 71.3366 110.46V112.428C70.6886 113.052 69.9086 113.424 69.0206 113.424ZM76.0391 114.12C77.4671 114.12 78.4991 113.46 78.4991 112.308C78.4991 111.072 77.6831 110.688 76.0991 110.304C74.9951 110.04 74.5631 109.788 74.5631 109.176C74.5631 108.696 74.9471 108.24 75.9311 108.24C76.6991 108.24 77.2991 108.54 77.7791 109.02L78.2471 108.468C77.6831 107.916 76.9871 107.556 75.9071 107.556C74.5391 107.556 73.7591 108.312 73.7591 109.212C73.7591 110.316 74.5031 110.7 75.9551 111.06C77.1911 111.348 77.6951 111.624 77.6951 112.32C77.6951 113.028 77.1311 113.424 76.0511 113.424C75.1751 113.424 74.5631 113.064 74.0831 112.512L73.5551 112.992C74.0351 113.64 74.9111 114.12 76.0391 114.12ZM82.0522 114.084C82.3402 114.084 82.6762 114.048 82.8682 114.012V113.304C82.6882 113.364 82.4482 113.388 82.2082 113.388C81.4282 113.388 81.2122 113.028 81.2122 112.356V108.384H82.8562V107.676H81.2122V105.408H80.3842V107.676H79.2802V108.384H80.3842V112.524C80.3842 113.616 80.8402 114.084 82.0522 114.084ZM86.6415 114.132C87.8415 114.132 88.6215 113.58 89.1735 112.692L88.6575 112.284C88.1775 113.028 87.6375 113.436 86.6895 113.436C85.5975 113.436 84.7095 112.56 84.6975 111H89.2215V110.844C89.2215 108.684 88.1175 107.556 86.6415 107.556C85.3095 107.556 83.8695 108.588 83.8695 110.832C83.8695 112.992 85.1655 114.132 86.6415 114.132ZM84.7095 110.34C84.8655 108.912 85.7175 108.252 86.6295 108.252C87.7575 108.252 88.3335 109.14 88.4175 110.34H84.7095ZM94.8913 114.108C95.8393 114.108 96.6553 113.76 97.3873 113.1C97.3873 113.46 97.4473 113.736 97.5313 114H98.3833C98.2513 113.676 98.2033 113.208 98.2033 112.44V109.572C98.2033 108.312 97.5913 107.556 96.1753 107.556C94.9273 107.556 94.0513 108.036 93.2953 108.732L93.7393 109.248C94.3993 108.672 95.1073 108.252 96.1033 108.252C96.9313 108.252 97.3873 108.672 97.3873 109.548V109.872C94.1713 110.364 93.1033 111.276 93.1033 112.524C93.1033 113.508 93.7633 114.108 94.8913 114.108ZM95.0713 113.424C94.3633 113.424 93.9193 113.076 93.9193 112.416C93.9193 111.588 94.6753 110.916 97.3873 110.46V112.428C96.7393 113.052 95.9593 113.424 95.0713 113.424ZM100.05 114H100.878V109.368C101.586 108.684 102.27 108.264 103.086 108.264C103.95 108.264 104.346 108.696 104.346 109.584V114H105.174V109.428C105.174 108.252 104.538 107.556 103.29 107.556C102.294 107.556 101.49 108.072 100.878 108.672V107.676H100.05V114ZM109.279 114.108C110.227 114.108 110.875 113.628 111.391 113.076C111.391 113.412 111.463 113.784 111.535 114H112.411C112.267 113.676 112.219 113.208 112.219 112.44V105.12H111.391V108.54C110.899 107.988 110.167 107.556 109.351 107.556C107.839 107.556 106.675 108.636 106.675 110.844C106.675 113.052 107.826 114.108 109.279 114.108ZM109.423 113.4C108.367 113.4 107.503 112.596 107.503 110.856C107.503 109.068 108.307 108.252 109.423 108.252C110.155 108.252 110.767 108.624 111.391 109.296V112.368C110.791 113.004 110.203 113.4 109.423 113.4ZM119.219 114.132C120.503 114.132 121.235 113.436 121.739 112.368L121.067 112.08C120.623 113.016 120.131 113.424 119.255 113.424C118.151 113.424 117.311 112.488 117.311 110.832C117.311 108.936 118.343 108.264 119.279 108.264C120.167 108.264 120.671 108.744 121.019 109.596L121.727 109.284C121.331 108.36 120.659 107.556 119.303 107.556C117.887 107.556 116.483 108.576 116.483 110.844C116.483 112.944 117.767 114.132 119.219 114.132ZM125.62 114.132C127.168 114.132 128.476 112.944 128.476 110.844C128.476 108.732 127.168 107.556 125.62 107.556C124.06 107.556 122.752 108.732 122.752 110.844C122.752 112.944 124.072 114.132 125.62 114.132ZM125.62 113.424C124.264 113.424 123.58 112.236 123.58 110.832C123.58 109.344 124.336 108.264 125.62 108.264C126.952 108.264 127.648 109.452 127.648 110.832C127.648 112.356 126.892 113.424 125.62 113.424ZM130.11 114H130.938V105.12H130.11V114ZM135.429 114.132C136.977 114.132 138.285 112.944 138.285 110.844C138.285 108.732 136.977 107.556 135.429 107.556C133.869 107.556 132.561 108.732 132.561 110.844C132.561 112.944 133.881 114.132 135.429 114.132ZM135.429 113.424C134.073 113.424 133.389 112.236 133.389 110.832C133.389 109.344 134.145 108.264 135.429 108.264C136.761 108.264 137.457 109.452 137.457 110.832C137.457 112.356 136.701 113.424 135.429 113.424ZM139.847 114H140.675V109.884C141.167 108.888 141.983 108.312 143.015 108.312C143.039 108.312 143.267 108.324 143.267 108.324L143.351 107.556H143.207C141.959 107.556 141.191 108.144 140.699 108.924H140.675V107.676H139.847V114ZM143.752 114H144.784V112.872H143.752V114ZM149.355 114H154.911V113.22H150.207V109.692H153.531V108.924H150.207V105.912H154.659V105.12H149.355V114ZM156.3 114H157.128V109.368C157.836 108.684 158.52 108.264 159.336 108.264C160.2 108.264 160.596 108.696 160.596 109.584V114H161.424V109.428C161.424 108.252 160.788 107.556 159.54 107.556C158.544 107.556 157.74 108.072 157.128 108.672V107.676H156.3V114ZM163.321 106.212H164.197V105.324H163.321V106.212ZM162.841 116.412C163.812 116.412 164.173 115.92 164.173 115.056V107.676H163.345V115.044C163.345 115.536 163.104 115.752 162.721 115.752C162.589 115.752 162.445 115.728 162.349 115.704V116.364C162.433 116.388 162.708 116.412 162.841 116.412ZM168.663 114.132C170.211 114.132 171.519 112.944 171.519 110.844C171.519 108.732 170.211 107.556 168.663 107.556C167.103 107.556 165.795 108.732 165.795 110.844C165.795 112.944 167.115 114.132 168.663 114.132ZM168.663 113.424C167.307 113.424 166.623 112.236 166.623 110.832C166.623 109.344 167.379 108.264 168.663 108.264C169.995 108.264 170.691 109.452 170.691 110.832C170.691 112.356 169.935 113.424 168.663 113.424ZM172.992 116.424C174.204 116.424 174.684 115.86 175.104 114.732L177.828 107.676H176.964L175.008 113.016H174.984L173.016 107.676H172.128L174.576 114.036L174.312 114.732C174.048 115.404 173.7 115.704 173.016 115.704C172.596 115.704 172.32 115.656 172.14 115.608L171.948 116.292C172.2 116.364 172.512 116.424 172.992 116.424ZM179.789 111.576H180.281L180.545 105.12H179.513L179.789 111.576ZM179.513 114H180.557V112.884H179.513V114Z" fill="white"/>
</svg>
